<svg xmlns="http://www.w3.org/2000/svg" viewBox="0 0 64 64" id="PowerHouse">
    <path d="M32,6.26,6.61,25.79,5.39,24.21l26-20a1,1,0,0,1,1.22,0l26,20-1.22,1.58ZM59,51a9,9,0,1,1-9-9A9,9,0,0,1,59,51Zm-2,0a7,7,0,1,0-7,7A7,7,0,0,0,57,51Zm-5-1H48.77l2.09-3.49-1.72-1-3,5A1,1,0,0,0,47,52h3.23l-2.09,3.49,1.72,1,3-5A1,1,0,0,0,52,50ZM38,56h3.08v2H18a5,5,0,0,1-5-5V26.14L9.62,28.79,8.38,27.21l23-18a1,1,0,0,1,1.24,0l23,18-1.24,1.58L51,26.14V41H49V24.57L32,11.27,15,24.57V53a3,3,0,0,0,3,3h8V46a6,6,0,0,1,12,0Zm-2,0V46a4,4,0,0,0-8,0V56Z" data-name="15  Power House, Building, Energy, Home" fill="#595bd4" class="color000000 svgShape"></path>
</svg>